<svg width="132" height="38" viewBox="0 0 132 38" fill="none" xmlns="http://www.w3.org/2000/svg">
<path d="M18.6434 16.7444L12.5344 10.6249C12.4722 10.5627 12.3715 10.5627 12.3094 10.6249L1.19988 21.7536C1.13775 21.8158 1.13776 21.9167 1.19988 21.9789L7.3089 28.0985C7.37102 28.1607 7.47174 28.1607 7.53386 28.0985L18.6434 16.9698C18.7055 16.9076 18.7055 16.8067 18.6434 16.7444Z" fill="#2F80ED"/>
<path d="M30.7159 28.067L36.7627 22.0098C36.842 21.9304 36.842 21.8016 36.7627 21.7221L25.7154 10.6558C25.6361 10.5763 25.5075 10.5763 25.4282 10.6558L19.3814 16.713C19.3021 16.7925 19.3021 16.9213 19.3814 17.0007L30.4287 28.067C30.508 28.1465 30.6365 28.1465 30.7159 28.067Z" fill="#2F80ED"/>
<path d="M25.0576 27.6774L19.0913 21.7008C19.0409 21.6503 18.9591 21.6503 18.9087 21.7008L12.9424 27.6774C12.892 27.7279 12.892 27.8098 12.9424 27.8603L18.9087 33.8368C18.9591 33.8874 19.0409 33.8874 19.0913 33.8368L25.0576 27.8603C25.108 27.8098 25.108 27.7279 25.0576 27.6774Z" fill="#012555"/>
<path d="M25.0576 10.1745L19.0913 4.1979C19.0409 4.14739 18.9591 4.14739 18.9087 4.1979L12.9424 10.1745C12.892 10.225 12.892 10.3069 12.9424 10.3574L18.9087 16.3339C18.9591 16.3844 19.0409 16.3844 19.0913 16.3339L25.0576 10.3574C25.108 10.3069 25.108 10.225 25.0576 10.1745Z" fill="#012555"/>
<path d="M52.2732 23.2435H46.2367L44.8253 27H42.1979L48.1041 11.8001H49.2549C50.0367 11.8001 50.5795 12.1837 50.8835 12.951L56.312 27H53.6629L52.2732 23.2435ZM46.9532 21.1155H51.5566L49.2767 14.9487H49.2549L46.9532 21.1155ZM60.683 27.1737C59.3512 27.1737 58.28 26.7901 57.4693 26.0229C56.6731 25.2556 56.2751 24.2423 56.2751 22.9829V20.2469C56.2751 19.4073 56.456 18.669 56.8179 18.0321C57.1798 17.3806 57.6937 16.8812 58.3596 16.5338C59.0255 16.1719 59.7927 15.9909 60.6613 15.9909H62.3984C63.6434 15.9909 64.6422 16.3528 65.395 17.0766C66.1622 17.786 66.5458 18.7269 66.5458 19.8995H64.0921C64.0921 19.3783 63.9329 18.9585 63.6144 18.6401C63.3104 18.3071 62.9051 18.1406 62.3984 18.1406H60.683C60.1185 18.1406 59.6552 18.3505 59.2933 18.7703C58.9459 19.1902 58.7722 19.733 58.7722 20.3989V22.8309C58.7722 23.4823 58.9459 24.0107 59.2933 24.416C59.6552 24.8213 60.1257 25.024 60.7047 25.024H62.4202C62.9558 25.024 63.3828 24.8286 63.7013 24.4377C64.0342 24.0469 64.2007 23.5402 64.2007 22.9177H66.6544C66.6544 24.1916 66.2636 25.2194 65.4818 26.0012C64.7146 26.7829 63.694 27.1737 62.4202 27.1737H60.683ZM71.7954 27.1737C70.4636 27.1737 69.3924 26.7901 68.5817 26.0229C67.7855 25.2556 67.3874 24.2423 67.3874 22.9829V20.2469C67.3874 19.4073 67.5684 18.669 67.9303 18.0321C68.2922 17.3806 68.8061 16.8812 69.472 16.5338C70.1379 16.1719 70.9051 15.9909 71.7737 15.9909H73.5108C74.7558 15.9909 75.7546 16.3528 76.5074 17.0766C77.2746 17.786 77.6582 18.7269 77.6582 19.8995H75.2045C75.2045 19.3783 75.0453 18.9585 74.7268 18.6401C74.4228 18.3071 74.0175 18.1406 73.5108 18.1406H71.7954C71.2308 18.1406 70.7676 18.3505 70.4057 18.7703C70.0583 19.1902 69.8846 19.733 69.8846 20.3989V22.8309C69.8846 23.4823 70.0583 24.0107 70.4057 24.416C70.7676 24.8213 71.2381 25.024 71.8171 25.024H73.5325C74.0681 25.024 74.4952 24.8286 74.8137 24.4377C75.1466 24.0469 75.3131 23.5402 75.3131 22.9177H77.7668C77.7668 24.1916 77.3759 25.2194 76.5942 26.0012C75.827 26.7829 74.8064 27.1737 73.5325 27.1737H71.7954ZM80.5626 14.9487C80.0705 14.9487 79.6724 14.8039 79.3684 14.5144C79.0788 14.2104 78.9341 13.8268 78.9341 13.3635C78.9341 12.9003 79.0788 12.5239 79.3684 12.2344C79.6724 11.9304 80.0705 11.7784 80.5626 11.7784C81.0548 11.7784 81.4529 11.9304 81.7569 12.2344C82.0609 12.5239 82.2129 12.9003 82.2129 13.3635C82.2129 13.8268 82.0609 14.2104 81.7569 14.5144C81.4529 14.8039 81.0548 14.9487 80.5626 14.9487ZM79.3249 16.1646H81.8221V27H79.3249V16.1646ZM88.1256 27.1737C86.7938 27.1737 85.7226 26.7901 84.9119 26.0229C84.1013 25.2412 83.6959 24.2134 83.6959 22.9395V20.2469C83.6959 19.4073 83.8769 18.669 84.2388 18.0321C84.6152 17.3806 85.1363 16.8812 85.8022 16.5338C86.4826 16.1719 87.2643 15.9909 88.1473 15.9909H90.0582C90.9412 15.9909 91.7157 16.1719 92.3816 16.5338C93.062 16.8812 93.5831 17.3806 93.945 18.0321C94.3214 18.669 94.5096 19.4073 94.5096 20.2469V22.9395C94.5096 24.2134 94.097 25.2412 93.2719 26.0229C92.4612 26.7901 91.3755 27.1737 90.0147 27.1737H88.1256ZM89.993 25.024C90.601 25.024 91.086 24.8213 91.4479 24.416C91.8242 23.9962 92.0124 23.4534 92.0124 22.7875V20.3772C92.0124 19.7113 91.8315 19.1757 91.4696 18.7703C91.1077 18.3505 90.6227 18.1406 90.0147 18.1406H88.1908C87.5828 18.1406 87.0978 18.3505 86.7359 18.7703C86.374 19.1757 86.1931 19.7113 86.1931 20.3772V22.7875C86.1931 23.4534 86.374 23.9962 86.7359 24.416C87.0978 24.8213 87.5683 25.024 88.1473 25.024H89.993ZM99.763 27.1737C98.8366 27.1737 98.0187 26.9566 97.3093 26.5223C96.6 26.0735 96.0499 25.4511 95.6591 24.6549C95.2682 23.8442 95.0728 22.9177 95.0728 21.8755H97.5699C97.5699 22.8019 97.7726 23.5475 98.1779 24.112C98.5832 24.6621 99.1116 24.9372 99.763 24.9372H101.5C102.166 24.9372 102.694 24.6476 103.085 24.0686C103.491 23.4751 103.693 22.6861 103.693 21.7018V11.8001H106.234V21.7886C106.234 22.8743 106.038 23.8225 105.648 24.6332C105.271 25.4438 104.728 26.0735 104.019 26.5223C103.324 26.9566 102.513 27.1737 101.587 27.1737H99.763ZM112.047 27.1737C110.715 27.1737 109.644 26.7901 108.833 26.0229C108.022 25.2412 107.617 24.2134 107.617 22.9395V20.2469C107.617 19.4073 107.798 18.669 108.16 18.0321C108.536 17.3806 109.057 16.8812 109.723 16.5338C110.404 16.1719 111.185 15.9909 112.068 15.9909H113.979C114.862 15.9909 115.637 16.1719 116.303 16.5338C116.983 16.8812 117.504 17.3806 117.866 18.0321C118.243 18.669 118.431 19.4073 118.431 20.2469V22.9395C118.431 24.2134 118.018 25.2412 117.193 26.0229C116.382 26.7901 115.297 27.1737 113.936 27.1737H112.047ZM113.914 25.024C114.522 25.024 115.007 24.8213 115.369 24.416C115.745 23.9962 115.934 23.4534 115.934 22.7875V20.3772C115.934 19.7113 115.753 19.1757 115.391 18.7703C115.029 18.3505 114.544 18.1406 113.936 18.1406H112.112C111.504 18.1406 111.019 18.3505 110.657 18.7703C110.295 19.1757 110.114 19.7113 110.114 20.3772V22.7875C110.114 23.4534 110.295 23.9962 110.657 24.416C111.019 24.8213 111.489 25.024 112.068 25.024H113.914ZM124.813 27.1737C124.35 27.1737 123.872 27.029 123.38 26.7394C122.902 26.4354 122.519 26.0591 122.229 25.6103V27H119.906V11.8001H122.403V17.1635C122.693 16.8016 123.062 16.5193 123.51 16.3166C123.959 16.0995 124.408 15.9909 124.857 15.9909H126.377C127.173 15.9909 127.882 16.1719 128.505 16.5338C129.127 16.8812 129.612 17.3734 129.96 18.0104C130.307 18.6473 130.481 19.3783 130.481 20.2035V22.7875C130.481 23.656 130.307 24.4233 129.96 25.0892C129.612 25.7551 129.12 26.269 128.483 26.6309C127.861 26.9928 127.144 27.1737 126.333 27.1737H124.813ZM126.073 24.9806C126.637 24.9806 127.101 24.7707 127.462 24.3509C127.824 23.9166 128.005 23.352 128.005 22.6572V20.3555C128.005 19.7041 127.832 19.1829 127.484 18.7921C127.137 18.3867 126.688 18.1841 126.138 18.1841H124.748C124.111 18.1841 123.576 18.4157 123.141 18.8789C122.707 19.3277 122.461 19.9212 122.403 20.6595V22.7875C122.475 23.4244 122.722 23.9528 123.141 24.3726C123.576 24.7779 124.075 24.9806 124.64 24.9806H126.073Z" fill="#012555"/>
</svg>
