<svg width="37" height="36" viewBox="0 0 37 36" fill="none" xmlns="http://www.w3.org/2000/svg">
<circle cx="18.8929" cy="18" r="18" fill="#DFF3FF"/>
<path d="M16.4069 17.7224C16.8601 18.1766 17.4671 18.4444 18.1079 18.4729V19.015H18.111C18.1171 19.2848 18.3378 19.5001 18.6077 19.5001C18.8775 19.5001 19.098 19.2848 19.1042 19.015H19.1072V18.4491C19.5484 18.4178 19.9615 18.2216 20.2649 17.8997C20.5681 17.5778 20.7391 17.1537 20.7442 16.7114C20.774 16.2495 20.6089 15.7963 20.2892 15.4617C19.9714 15.1948 19.5772 15.0355 19.163 15.0068L18.4673 14.9077H18.4675C18.2662 14.8868 18.0759 14.8058 17.9214 14.6752C17.8072 14.5647 17.7442 14.4115 17.7476 14.2526C17.7476 13.8484 18.0449 13.5085 18.6574 13.5085C19.0986 13.4745 19.5347 13.6204 19.8667 13.9128L19.8678 13.9115V13.9116C19.9639 14.0113 20.0965 14.0675 20.235 14.0675C20.3734 14.0675 20.5058 14.0113 20.6021 13.9116C20.6982 13.812 20.7498 13.6776 20.7449 13.5393C20.7399 13.4009 20.6791 13.2705 20.576 13.1779C20.176 12.7992 19.6567 12.5715 19.1071 12.534V11.9725C19.086 11.7105 18.8704 11.5068 18.6078 11.5002C18.3468 11.5009 18.1293 11.7003 18.106 11.9603L18.108 12.5705V12.5706C17.6945 12.6287 17.3167 12.8362 17.0458 13.1539C16.7748 13.4716 16.6297 13.8776 16.6377 14.2951C16.6131 14.723 16.7659 15.1421 17.0602 15.4536C17.3793 15.734 17.7796 15.9054 18.2026 15.9429L18.9143 16.042C19.1061 16.0516 19.2896 16.1241 19.4361 16.2483C19.5645 16.3807 19.6306 16.5615 19.6181 16.7456C19.6181 17.2169 19.2541 17.4735 18.5746 17.4735C18.0583 17.5068 17.5502 17.3312 17.1643 16.9865C17.0676 16.8856 16.9345 16.8275 16.7947 16.825C16.6549 16.8227 16.52 16.8759 16.4197 16.9733C16.3194 17.0708 16.2622 17.2042 16.2607 17.344C16.259 17.4838 16.3132 17.6184 16.4113 17.7181L16.4069 17.7224Z" fill="#4499FE"/>
<path d="M26.9878 15.2142L24.5021 13.8332V11.5001C24.5021 10.9695 24.2914 10.4609 23.9164 10.0858C23.5412 9.71077 23.0326 9.5 22.5021 9.5H14.5024C13.9718 9.5 13.4633 9.71077 13.0881 10.0858C12.7131 10.4609 12.5023 10.9695 12.5023 11.5001V13.8332L10.0166 15.2142C9.86075 15.3008 9.73083 15.4275 9.64043 15.5812C9.55003 15.735 9.50232 15.91 9.50232 16.0884V24.5C9.50232 25.2957 9.81839 26.0588 10.3811 26.6213C10.9436 27.1839 11.7066 27.5 12.5023 27.5H24.5023C25.298 27.5 26.0611 27.1839 26.6236 26.6213C27.1862 26.0588 27.5023 25.2957 27.5023 24.5V16.0884C27.5023 15.91 27.4546 15.735 27.3642 15.5812C27.2738 15.4275 27.1439 15.3008 26.988 15.2142H26.9878ZM24.8371 18.421L18.8371 21.421C18.6263 21.5263 18.3781 21.5263 18.1671 21.421L12.1671 18.421C11.9892 18.3321 11.8539 18.1762 11.7908 17.9875C11.7278 17.7989 11.7424 17.593 11.8311 17.415C11.92 17.2371 12.0759 17.1016 12.2646 17.0387C12.4532 16.9757 12.6591 16.9903 12.8371 17.079L13.5021 17.4117V11.5C13.5024 11.2348 13.6079 10.9807 13.7954 10.7932C13.9829 10.6057 14.237 10.5002 14.5022 10.4999H22.5023H22.5021C22.7673 10.5002 23.0214 10.6057 23.2089 10.7932C23.3964 10.9807 23.5019 11.2348 23.5022 11.5V17.4117L24.1672 17.0792V17.079C24.3452 16.9903 24.5511 16.9757 24.7397 17.0387C24.9284 17.1016 25.0843 17.2371 25.1731 17.415C25.2619 17.593 25.2764 17.7989 25.2135 17.9875C25.1504 18.1762 25.0151 18.3321 24.8372 18.421H24.8371Z" fill="#4499FE"/>
</svg>
