<svg width="20" height="20" viewBox="0 0 20 20" fill="none" xmlns="http://www.w3.org/2000/svg">
<g clip-path="url(#clip0_25_2921)">
<path d="M9.9974 18.3333C5.3949 18.3333 1.66406 14.6025 1.66406 9.99996C1.66406 5.39746 5.3949 1.66663 9.9974 1.66663C14.5999 1.66663 18.3307 5.39746 18.3307 9.99996C18.3307 14.6025 14.5999 18.3333 9.9974 18.3333ZM9.9974 16.6666C11.7655 16.6666 13.4612 15.9642 14.7114 14.714C15.9617 13.4638 16.6641 11.7681 16.6641 9.99996C16.6641 8.23185 15.9617 6.53616 14.7114 5.28591C13.4612 4.03567 11.7655 3.33329 9.9974 3.33329C8.22929 3.33329 6.53359 4.03567 5.28335 5.28591C4.03311 6.53616 3.33073 8.23185 3.33073 9.99996C3.33073 11.7681 4.03311 13.4638 5.28335 14.714C6.53359 15.9642 8.22929 16.6666 9.9974 16.6666V16.6666ZM10.8307 9.99996H14.1641V11.6666H9.16406V5.83329H10.8307V9.99996Z" fill="black"/>
</g>
<defs>
<clipPath id="clip0_25_2921">
<rect width="20" height="20" fill="white"/>
</clipPath>
</defs>
</svg>
