<svg width="38" height="38" viewBox="0 0 38 38" fill="none" xmlns="http://www.w3.org/2000/svg">
<path d="M18.6434 16.7444L12.5344 10.6249C12.4722 10.5627 12.3715 10.5627 12.3094 10.6249L1.19988 21.7536C1.13775 21.8158 1.13776 21.9167 1.19988 21.9789L7.3089 28.0985C7.37102 28.1607 7.47174 28.1607 7.53386 28.0985L18.6434 16.9698C18.7055 16.9076 18.7055 16.8067 18.6434 16.7444Z" fill="#2F80ED"/>
<path d="M30.7159 28.067L36.7627 22.0098C36.842 21.9304 36.842 21.8016 36.7627 21.7221L25.7154 10.6558C25.6361 10.5763 25.5075 10.5763 25.4282 10.6558L19.3814 16.713C19.3021 16.7925 19.3021 16.9213 19.3814 17.0007L30.4287 28.067C30.508 28.1465 30.6365 28.1465 30.7159 28.067Z" fill="#2F80ED"/>
<path d="M25.0576 27.6774L19.0913 21.7008C19.0409 21.6503 18.9591 21.6503 18.9087 21.7008L12.9424 27.6774C12.892 27.7279 12.892 27.8098 12.9424 27.8603L18.9087 33.8368C18.9591 33.8874 19.0409 33.8874 19.0913 33.8368L25.0576 27.8603C25.108 27.8098 25.108 27.7279 25.0576 27.6774Z" fill="#012555"/>
<path d="M25.0576 10.1745L19.0913 4.1979C19.0409 4.14739 18.9591 4.14739 18.9087 4.1979L12.9424 10.1745C12.892 10.225 12.892 10.3069 12.9424 10.3574L18.9087 16.3339C18.9591 16.3844 19.0409 16.3844 19.0913 16.3339L25.0576 10.3574C25.108 10.3069 25.108 10.225 25.0576 10.1745Z" fill="#012555"/>
</svg>
