<svg width="36" height="36" viewBox="0 0 36 36" fill="none" xmlns="http://www.w3.org/2000/svg">
<circle cx="18" cy="18" r="18" fill="#FFF6DF"/>
<path d="M17.9483 18.7087C17.9694 18.6876 17.9907 18.6664 18.0118 18.6664C17.504 17.8413 16.6577 17.3335 15.621 17.3547C15.4941 17.3547 15.3672 17.4393 15.3248 17.5663L14.2881 20.6553L13.9285 18.8147H13.9919C14.1189 18.8147 14.2247 18.7089 14.2247 18.5819V17.9472C14.2247 17.8203 14.1189 17.7145 13.9919 17.7145H13.1668C13.0399 17.7145 12.9341 17.8203 12.9341 17.9472V18.5819C12.9341 18.7089 13.0399 18.8147 13.1668 18.8147H13.2303L12.8706 20.6553L11.8339 17.5663C11.7916 17.4394 11.6858 17.3547 11.5377 17.3547C10.1202 17.3123 9.06241 18.3067 8.74499 19.7031L8.02585 22.6862C7.87768 23.3633 8.38549 23.9979 9.06256 23.9979H15.9385V23.9768L16.6366 20.9724C16.8481 20.0628 17.2925 19.28 17.9483 18.7087L17.9483 18.7087Z" fill="#F88341"/>
<path d="M16.8692 13.8004C16.8692 15.6233 15.3916 17.101 13.5688 17.101C11.746 17.101 10.2684 15.6233 10.2684 13.8004C10.2684 11.9777 11.746 10.5 13.5688 10.5C15.3916 10.5 16.8692 11.9777 16.8692 13.8004Z" fill="#F88341"/>
<path d="M28.081 24.2092L27.404 21.2261C27.0867 19.8297 26.0288 18.8354 24.6112 18.8777C24.4843 18.8777 24.3574 18.9623 24.315 19.0894L23.2783 22.1783L22.9187 20.3377H22.9821C23.109 20.3377 23.2148 20.2319 23.2148 20.105V19.4702C23.2148 19.3433 23.109 19.2375 22.9821 19.2375H22.157C22.0301 19.2375 21.9243 19.3433 21.9243 19.4702V20.105C21.9243 20.2319 22.0301 20.3377 22.157 20.3377H22.2205L21.8608 22.1783L20.7819 19.0683C20.7395 18.9414 20.6337 18.8566 20.4857 18.8566C19.0682 18.8143 18.0104 19.8087 17.6929 21.205L17.0158 24.1882C16.8677 24.8653 17.3755 25.4998 18.0526 25.4998H27.023C27.7213 25.4998 28.229 24.8653 28.081 24.2093L28.081 24.2092Z" fill="#F88341"/>
<path d="M25.8425 15.3236C25.8425 17.1465 24.365 18.624 22.5421 18.624C20.7194 18.624 19.2417 17.1465 19.2417 15.3236C19.2417 13.5009 20.7194 12.0232 22.5421 12.0232C24.365 12.0232 25.8425 13.5009 25.8425 15.3236Z" fill="#F88341"/>
</svg>
