<svg width="36" height="36" viewBox="0 0 36 36" fill="none" xmlns="http://www.w3.org/2000/svg">
<circle cx="18" cy="18" r="18" fill="#FFE1DF"/>
<g clip-path="url(#clip0_5_2716)">
<path d="M18.0026 13.3333C19.7707 13.3333 21.4664 14.0357 22.7167 15.2859C23.9669 16.5361 24.6693 18.2318 24.6693 19.9999C24.6693 21.768 23.9669 23.4637 22.7167 24.714C21.4664 25.9642 19.7707 26.6666 18.0026 26.6666C16.2345 26.6666 14.5388 25.9642 13.2886 24.714C12.0383 23.4637 11.3359 21.768 11.3359 19.9999C11.3359 18.2318 12.0383 16.5361 13.2886 15.2859C14.5388 14.0357 16.2345 13.3333 18.0026 13.3333V13.3333ZM18.0026 16.2499L16.9001 18.4833L14.4359 18.8416L16.2193 20.5791L15.7984 23.0341L18.0026 21.8749L20.2068 23.0333L19.7859 20.5791L21.5693 18.8408L19.1051 18.4824L18.0026 16.2499ZM18.8359 9.16577L23.0026 9.1666V11.6666L21.8668 12.6149C20.9242 12.1204 19.8952 11.8123 18.8359 11.7074V9.1666V9.16577ZM17.1693 9.16577V11.7074C16.1104 11.8121 15.0816 12.12 14.1393 12.6141L13.0026 11.6666V9.1666L17.1693 9.16577V9.16577Z" fill="#FF7169"/>
</g>
<defs>
<clipPath id="clip0_5_2716">
<rect width="20" height="20" fill="white" transform="translate(8 7.5)"/>
</clipPath>
</defs>
</svg>
