<svg width="37" height="36" viewBox="0 0 37 36" fill="none" xmlns="http://www.w3.org/2000/svg">
<path d="M18.963 14.9809H22.8822C24.6145 14.9809 26.2762 14.2926 27.5012 13.0675C28.7263 11.8424 29.4144 10.1811 29.4144 8.44865V5.40002H22.8822C21.1498 5.40002 19.4881 6.08837 18.2633 7.31343C17.0382 8.53854 16.3499 10.1998 16.3499 11.9323V14.5453C15.2207 13.6945 13.8444 13.2358 12.4307 13.2388H5.89844V16.2871C5.89844 18.0198 6.58648 19.6812 7.81161 20.9062C9.03674 22.1312 10.6983 22.8194 12.4307 22.8194H16.3499V32.4H18.963V28.9161H22.8822C24.6145 28.9161 26.2762 28.2277 27.5012 27.0027C28.7264 25.7779 29.4144 24.1163 29.4144 22.3838V19.3355H22.8822C21.4684 19.3322 20.092 19.7909 18.963 20.6417V14.9809ZM18.963 11.9326V11.9323C18.963 10.8928 19.3758 9.89609 20.1109 9.16098C20.8457 8.42586 21.8427 8.01301 22.8822 8.01301H26.8014V8.44862H26.8017C26.8017 9.48811 26.3886 10.4848 25.6538 11.2199C24.9186 11.9551 23.9217 12.3679 22.8821 12.3679H18.9629L18.963 11.9326ZM12.4307 20.2068C11.3912 20.2068 10.3942 19.7937 9.65907 19.0588C8.92426 18.3237 8.51111 17.3268 8.51111 16.2872V15.8519H12.4306C13.4701 15.8519 14.4671 16.2647 15.2019 16.9999C15.937 17.7347 16.3499 18.7317 16.3499 19.7712V20.2068L12.4307 20.2068ZM22.8823 21.9486H26.8015V22.3842H26.8018C26.8018 23.4237 26.3887 24.4207 25.6538 25.1555C24.9187 25.8906 23.9218 26.3035 22.8822 26.3035H18.963V25.8681C18.963 24.8287 19.3758 23.8316 20.111 23.0965C20.8458 22.3617 21.8428 21.9486 22.8823 21.9486L22.8823 21.9486Z" fill="#2B2F34"/>
</svg>
